<?xml version="1.0" encoding="UTF-8" standalone="no"?>
<!DOCTYPE svg PUBLIC "-//W3C//DTD SVG 1.1//EN" "http://www.w3.org/Graphics/SVG/1.1/DTD/svg11.dtd">
<svg xmlns="http://www.w3.org/2000/svg"
     xmlns:xlink="http://www.w3.org/1999/xlink"
     version="1.1"
     width="200"
     height="300"
     viewBox="0 0 200 300"
     xml:space="preserve">
    <defs>
    </defs>
    <g transform="matrix(1 0 0 1 100 150)"
       id="083853ba-7614-42e7-8dd0-98ada5516315">
        <rect style="stroke: none; stroke-width: 1; stroke-dasharray: none; stroke-linecap: butt; stroke-dashoffset: 0; stroke-linejoin: miter; stroke-miterlimit: 4; fill: rgb(90,192,84); fill-rule: nonzero; opacity: 1; visibility: hidden;"
              vector-effect="non-scaling-stroke"
              x="-100"
              y="-150"
              rx="0"
              ry="0"
              width="200"
              height="300" />
    </g>
    <g transform="matrix(Infinity NaN NaN Infinity 0 0)"
       id="31167322-3ff5-4291-9da1-4c025e0483ca">
    </g>
    <g transform="matrix(1.02 0 0 1.02 100.75 141.63)">
        <g style=""
           vector-effect="non-scaling-stroke">
            <g transform="matrix(1 0 0 1 0 0)">
                <rect style="stroke: none; stroke-width: 1; stroke-dasharray: none; stroke-linecap: butt; stroke-dashoffset: 0; stroke-linejoin: miter; stroke-miterlimit: 4; fill: none; fill-rule: nonzero; opacity: 1;"
                      vector-effect="non-scaling-stroke"
                      x="-116.78"
                      y="-59.815"
                      rx="0"
                      ry="0"
                      width="233.56"
                      height="119.63" />
            </g>
            <g transform="matrix(1 0 0 1 24.55 11.52)">
                <path style="stroke: none; stroke-width: 1; stroke-dasharray: none; stroke-linecap: butt; stroke-dashoffset: 0; stroke-linejoin: miter; stroke-miterlimit: 4; fill: rgb(255,255,255); fill-rule: nonzero; opacity: 1;"
                      vector-effect="non-scaling-stroke"
                      transform=" translate(-141.33, -71.34)"
                      d="M 209.56 46.08 C 209.77 45.72 209.55 45.449999999999996 209.09 45.449999999999996 C 206.70000000000002 45.449999999999996 203.57 45.459999999999994 201.09 45.459999999999994 C 200.5 45.459999999999994 200.19 45.529999999999994 199.91 46.07999999999999 C 198.99 47.83999999999999 187.8 64.60999999999999 185.72 67.85999999999999 C 185.37 68.35999999999999 184.94 68.28999999999999 184.89 67.71999999999998 C 184.67999999999998 65.78999999999998 183.01 63.55999999999999 180.38 62.499999999999986 C 178.38 61.68999999999998 176.41 61.539999999999985 174.38 61.80999999999999 C 170.7 62.29999999999999 167.42 64.24999999999999 164.54 66.42999999999999 C 160.2 69.72999999999999 156.45 74.00999999999999 151.60999999999999 77.17999999999999 C 148.97 78.89999999999999 145.35 80.39999999999999 142.92999999999998 78.16 C 140.73999999999998 76.13 140.98999999999998 71.61999999999999 144.33999999999997 68.13 C 144.68999999999997 67.75999999999999 145.11999999999998 68.07 145.04999999999998 68.39999999999999 C 144.73 69.97999999999999 145.11999999999998 71.55 146.32 72.64999999999999 C 147.78 73.96 149.87 74.10999999999999 151.66 73.22999999999999 C 153.77 72.17999999999999 155.01 70.16 155.38 67.86999999999999 C 155.94 64.30999999999999 153.2 61.16999999999999 149.76999999999998 60.91999999999999 C 146.98 60.719999999999985 144.30999999999997 61.68999999999999 141.70999999999998 63.83999999999999 C 140.40999999999997 64.91999999999999 139.65999999999997 65.71999999999998 138.54 67.32999999999998 C 138.26999999999998 67.71999999999998 137.84 67.75999999999999 137.85999999999999 67.17999999999998 C 137.98999999999998 62.619999999999976 136.10999999999999 60.05999999999998 132.33999999999997 59.96999999999998 C 129.42 59.89999999999998 126.28999999999998 61.48999999999998 123.85999999999997 63.42999999999998 C 121.18999999999997 65.56999999999998 118.85999999999997 68.41999999999997 116.35999999999997 71.08999999999997 C 116.04999999999997 71.41999999999997 115.77999999999997 71.39999999999998 115.68999999999997 70.75999999999998 C 115.60999999999997 67.73999999999998 114.85999999999997 64.81999999999998 113.45999999999997 62.73999999999998 C 112.96999999999997 62.01999999999998 111.92999999999996 61.65999999999998 111.04999999999997 62.14999999999998 C 110.64999999999996 62.369999999999976 109.23999999999997 63.019999999999975 108.21999999999997 63.839999999999975 C 107.70999999999997 64.25999999999998 107.51999999999997 64.85999999999997 107.73999999999997 65.63999999999997 C 109.08999999999996 70.14999999999998 108.78999999999996 75.27999999999997 106.95999999999997 79.60999999999997 C 105.27999999999996 83.57999999999997 102.00999999999996 87.15999999999997 98.16999999999996 88.36999999999998 C 95.63999999999996 89.16999999999997 93.00999999999996 88.77999999999997 91.37999999999995 86.53999999999998 C 89.14999999999995 83.44999999999997 90.04999999999995 78.05999999999997 93.37999999999995 73.59999999999998 C 96.31999999999995 69.66999999999997 100.56999999999995 67.16999999999999 104.80999999999995 65.55999999999997 C 105.30999999999995 65.36999999999998 105.40999999999994 65.04999999999997 105.26999999999994 64.61999999999998 C 105.03999999999994 63.91999999999997 104.66999999999994 62.96999999999998 104.51999999999994 62.53999999999998 C 104.12999999999994 61.50999999999998 103.03999999999994 61.339999999999975 101.70999999999994 61.479999999999976 C 98.62999999999994 61.839999999999975 95.84999999999994 62.88999999999997 93.09999999999994 64.35999999999997 C 85.90999999999994 68.20999999999997 82.30999999999995 75.65999999999997 80.72999999999993 79.64999999999998 C 79.96999999999993 81.56999999999998 79.31999999999994 82.75999999999998 78.47999999999993 83.81999999999998 C 77.34999999999994 85.23999999999998 75.91999999999993 86.53999999999998 73.31999999999994 88.82999999999998 C 73.07999999999994 89.03999999999998 72.90999999999994 89.47999999999999 73.10999999999994 89.87999999999998 C 73.37999999999994 90.42999999999998 74.72999999999995 92.33999999999997 75.10999999999994 92.50999999999998 C 75.52999999999994 92.71999999999997 76.02999999999994 92.42999999999998 76.21999999999994 92.28999999999998 C 78.03999999999994 91.05999999999997 80.21999999999994 89.09999999999998 81.28999999999994 87.76999999999998 C 81.65999999999994 87.31999999999998 82.04999999999994 87.50999999999998 82.24999999999993 88.19999999999999 C 83.24999999999993 91.74999999999999 85.84999999999992 94.64999999999999 89.44999999999993 95.85999999999999 C 96.03999999999994 98.07999999999998 102.87999999999994 94.85999999999999 108.03999999999994 89.25999999999999 C 111.31999999999994 85.69999999999999 112.49999999999993 83.41 113.75999999999993 81.85 C 115.88999999999993 79.21 120.08999999999993 73.3 125.09999999999994 69.50999999999999 C 126.93999999999994 68.10999999999999 129.10999999999993 67.05 130.19999999999993 67.74999999999999 C 131.07999999999993 68.31999999999998 131.35999999999993 69.63999999999999 129.94999999999993 72.19999999999999 C 124.84999999999994 81.51999999999998 117.33999999999993 92.46999999999998 115.95999999999994 95.13 C 115.70999999999994 95.58999999999999 115.92999999999994 95.94999999999999 116.40999999999994 95.94999999999999 C 119.07999999999994 95.93999999999998 121.72999999999993 95.93999999999998 124.14999999999993 95.93999999999998 C 124.54999999999994 95.91999999999999 124.72999999999993 95.73999999999998 124.93999999999994 95.44999999999999 C 128.85999999999993 89.32 132.53999999999994 83.47999999999999 136.48999999999995 77.44999999999999 C 136.70999999999995 77.08999999999999 136.90999999999994 77.36999999999999 136.91999999999996 77.52999999999999 C 136.99999999999997 78.92999999999999 137.34999999999997 80.84999999999998 138.17999999999995 82.1 C 139.66999999999996 84.41999999999999 141.78999999999996 85.41999999999999 144.13999999999996 85.44 C 146.00999999999996 85.46 146.94999999999996 85.17999999999999 148.96999999999997 84.42999999999999 C 150.60999999999996 83.82 151.92999999999998 83.02 152.92999999999998 82.3 C 153.51999999999998 81.89 153.61999999999998 82.58 153.60999999999999 82.67999999999999 C 152.7 87.55 153.82 93.30999999999999 158.66 95.71 C 164.45 98.55999999999999 170.81 94.55 174.47 90.92999999999999 C 174.83 90.58 175.21 90.61999999999999 175.25 91.36999999999999 C 175.33 92.74999999999999 175.95 94.38999999999999 177.1 95.53999999999999 C 180.17 98.61999999999999 186.35 97.39999999999999 192.56 92.58999999999999 C 196.55 89.50999999999999 200.72 85.16 204.49 80.55999999999999 C 204.63 80.37999999999998 204.73000000000002 80.1 204.46 79.80999999999999 C 203.89000000000001 79.21 203.06 78.51999999999998 202.49 77.99 C 202.23000000000002 77.77 201.85000000000002 77.83 201.63 78 C 197.76999999999998 81.67 194.29 85.86 189.26 89.33 C 187.57 90.51 184.85999999999999 91.47 183.64999999999998 89.83 C 183.17999999999998 89.19 183.23 88.31 183.7 87.14999999999999 C 185.15 83.49 208.36 48.17 209.56 46.08 z M 178.89 75.7 C 178.94 75.97 179.29 76.23 179.64 76.36 C 179.76 76.4 179.82999999999998 76.49 179.69 76.78 C 178.7 78.89 177.8 80.11 176.56 81.95 C 175.42000000000002 83.65 174.14000000000001 84.97 172.59 86.24000000000001 C 170.25 88.18 167 90.28000000000002 164.31 88.87 C 163.12 88.25 162.6 86.58 162.62 85.23 C 162.68 81.43 164.37 77.52000000000001 167.49 73.69 C 171.3 69 175.51000000000002 66.57 178.27 67.89999999999999 C 181.13000000000002 69.25999999999999 180.22 72.57 178.94 75.16999999999999 C 178.85 75.37 178.84 75.54 178.89 75.7 z"
                      stroke-linecap="round" />
            </g>
            <g transform="matrix(1 0 0 1 -23.35 0.11)">
                <path style="stroke: none; stroke-width: 1; stroke-dasharray: none; stroke-linecap: butt; stroke-dashoffset: 0; stroke-linejoin: miter; stroke-miterlimit: 4; fill: rgb(255,255,255); fill-rule: nonzero; opacity: 1;"
                      vector-effect="non-scaling-stroke"
                      transform=" translate(-93.43, -59.92)"
                      d="M 41.27 95.81 C 32.62 95.87 25 90.53 24.13 81.27 C 23.64 76.14 25.09 71.57 28 67.81 C 30.57 64.46000000000001 34.93 61.67 38.62 60.99 C 39.82 60.77 41.43 60.910000000000004 42.099999999999994 61.7 C 43.14999999999999 62.92 42.839999999999996 64.25 41.8 64.79 C 38.989999999999995 66.23 35.599999999999994 68.69000000000001 33.93 72.04 C 32.57 74.78 32.3 78.09 34.37 81.23 C 37.839999999999996 86.48 47.53 86.62 56.53 78.25 C 58.76 76.2 60.75 74.24 62.78 71.91 C 66.75 67.38 68.06 65.72 73.34 58.41 C 73.4 58.33 73.42 58.209999999999994 73.39 58.16 C 73.35 58.06999999999999 73.27 58.04 73.12 58.029999999999994 C 69.60000000000001 58.129999999999995 66.53 59.17999999999999 63.550000000000004 61.41 C 62.690000000000005 62.04 61.46000000000001 61.949999999999996 60.910000000000004 61.12 C 60.31 60.19 60.74 58.97 61.730000000000004 58.29 C 66.53 54.95 71.77000000000001 54.35 77.12 53.45 C 77.12 53.45 77.49000000000001 53.470000000000006 77.80000000000001 53.06 C 80.00000000000001 50.24 81.66000000000001 47.7 84.00000000000001 44.85 C 86.36000000000001 41.96 89.41000000000001 39.300000000000004 91.74000000000001 37.31 C 94.99000000000001 34.510000000000005 97.07000000000001 33.57 99.19000000000001 32.42 C 99.75000000000001 32.13 99.12000000000002 31.78 98.95000000000002 31.78 C 87.12000000000002 29.560000000000002 74.83000000000001 26.68 63.08000000000002 31.03 C 54.95000000000002 34.07 51.380000000000024 40.52 53.10000000000002 44.83 C 54.32000000000002 47.89 58.340000000000025 48.379999999999995 62.11000000000002 46.54 C 65.24000000000002 45.01 68.13000000000002 42.54 70.18000000000002 39.36 C 71.33000000000003 37.6 73.75000000000001 38.87 72.44000000000003 41.93 C 69.00000000000003 50.01 62.43000000000003 56.42 54.43000000000002 56.69 C 47.62000000000002 56.91 43.23000000000002 51.9 43.24000000000002 45.72 C 43.270000000000024 33.53 56.840000000000025 25.509999999999998 71.09000000000003 24.299999999999997 C 88.26000000000003 22.879999999999995 104.52000000000004 27.449999999999996 121.57000000000002 29.519999999999996 C 134.63000000000002 31.099999999999994 147.16000000000003 31.139999999999997 160.28000000000003 28.119999999999997 C 161.83000000000004 27.779999999999998 162.92000000000002 28.769999999999996 162.82000000000002 30.339999999999996 C 162.69000000000003 32.61 160.94000000000003 34.79 156.61 37.15 C 151.69000000000003 39.85 146.55 40.66 141.17000000000002 40.71 C 128.18 40.82 116.07000000000002 35.75 103.55000000000001 33.03 C 103.57000000000001 33.58 103.71000000000001 34.230000000000004 103.25000000000001 34.58 C 96.32 39.7 90.05 44.9 85.85 52.2 C 85.71 52.370000000000005 85.78999999999999 52.53 86.03 52.510000000000005 C 89.68 52.32000000000001 92.96000000000001 52.220000000000006 96.36 51.95 C 96.95 51.900000000000006 96.98 51.75 96.92 51.32 C 96.62 48.8 97.35000000000001 45.94 99.57000000000001 43.96 C 101.83000000000001 41.93 104.67 41.7 106.55000000000001 43.160000000000004 C 108.69000000000001 44.830000000000005 108.50000000000001 47.82000000000001 107.33000000000001 50.07000000000001 C 106.14000000000001 52.35000000000001 104.18 53.57000000000001 102.29 54.16000000000001 C 102.29 54.16000000000001 101.9 54.250000000000014 101.95 54.610000000000014 C 102.03 55.19000000000001 104.60000000000001 56.610000000000014 104.82000000000001 56.990000000000016 C 105.03 57.350000000000016 104.92 57.91000000000002 104.53 58.34000000000002 C 104.26 58.65000000000002 103.83 58.94000000000002 103.29 58.93000000000002 C 102.85000000000001 58.92000000000002 102.58000000000001 58.770000000000024 102.02000000000001 58.46000000000002 C 100.87 57.83000000000002 99.43 56.810000000000024 98.46000000000001 55.60000000000002 C 98.13000000000001 55.190000000000026 97.97000000000001 55.18000000000002 97.15 55.230000000000025 C 93.47 55.440000000000026 87.72 56.00000000000003 83.83000000000001 56.480000000000025 C 82.89000000000001 56.60000000000002 82.75000000000001 56.770000000000024 82.55000000000001 57.10000000000002 C 76.34000000000002 67.33000000000003 69.72000000000001 78.37000000000002 62.45000000000001 85.75000000000003 C 54.65 93.67 48.16 95.76 41.27 95.81 z M 100.41 50.34 C 100.50999999999999 50.870000000000005 100.71 50.970000000000006 100.95 50.92 C 102.13000000000001 50.68 103.43 49.71 104.19 48.59 C 104.89 47.57 105.22 46.09 104.52 45.5 C 103.89999999999999 44.97 102.89999999999999 45.12 102.14999999999999 45.78 C 100.67 47.09 100.21 48.96 100.41 50.34 z"
                      stroke-linecap="round" />
            </g>
        </g>
    </g>
</svg>